<svg width="263" height="42" viewBox="0 0 263 42" fill="none" xmlns="http://www.w3.org/2000/svg">
<path d="M12.6035 7.40625H17.877V25.125C17.877 26.7539 17.5137 28.1953 16.7871 29.4492C16.0723 30.6914 15.0586 31.6523 13.7461 32.332C12.4336 33.0117 10.9512 33.3516 9.29883 33.3516C6.5918 33.3516 4.48242 32.666 2.9707 31.2949C1.45898 29.9121 0.703125 27.9609 0.703125 25.4414H6.01172C6.01172 26.6953 6.27539 27.6211 6.80273 28.2188C7.33008 28.8164 8.16211 29.1152 9.29883 29.1152C10.3066 29.1152 11.1094 28.7695 11.707 28.0781C12.3047 27.3867 12.6035 26.4023 12.6035 25.125V7.40625ZM35.666 26.2852C35.666 25.2891 35.3145 24.5273 34.6113 24C33.9082 23.4609 32.6426 22.8984 30.8145 22.3125C28.9863 21.7148 27.5391 21.1289 26.4727 20.5547C23.5664 18.9844 22.1133 16.8691 22.1133 14.209C22.1133 12.8262 22.5 11.5957 23.2734 10.5176C24.0586 9.42773 25.1777 8.57813 26.6309 7.96875C28.0957 7.35937 29.7363 7.05469 31.5527 7.05469C33.3809 7.05469 35.0098 7.38867 36.4395 8.05664C37.8691 8.71289 38.9766 9.64453 39.7617 10.8516C40.5586 12.0586 40.957 13.4297 40.957 14.9648H35.6836C35.6836 13.793 35.3145 12.8848 34.5762 12.2402C33.8379 11.584 32.8008 11.2559 31.4648 11.2559C30.1758 11.2559 29.1738 11.5313 28.459 12.082C27.7441 12.6211 27.3867 13.3359 27.3867 14.2266C27.3867 15.0586 27.8027 15.7559 28.6348 16.3184C29.4785 16.8809 30.7148 17.4082 32.3438 17.9004C35.3438 18.8027 37.5293 19.9219 38.9004 21.2578C40.2715 22.5938 40.957 24.2578 40.957 26.25C40.957 28.4648 40.1191 30.2051 38.4434 31.4707C36.7676 32.7246 34.5117 33.3516 31.6758 33.3516C29.707 33.3516 27.9141 32.9941 26.2969 32.2793C24.6797 31.5527 23.4434 30.5625 22.5879 29.3086C21.7441 28.0547 21.3223 26.6016 21.3223 24.9492H26.6133C26.6133 27.7734 28.3008 29.1855 31.6758 29.1855C32.9297 29.1855 33.9082 28.9336 34.6113 28.4297C35.3145 27.9141 35.666 27.1992 35.666 26.2852ZM65.5664 20.7832C65.5664 23.3027 65.1211 25.5117 64.2305 27.4102C63.3398 29.3086 62.0625 30.7734 60.3984 31.8047C58.7461 32.8359 56.8477 33.3516 54.7031 33.3516C52.582 33.3516 50.6895 32.8418 49.0254 31.8223C47.3613 30.8027 46.0723 29.3496 45.1582 27.4629C44.2441 25.5645 43.7812 23.3848 43.7695 20.9238V19.6582C43.7695 17.1387 44.2207 14.9238 45.123 13.0137C46.0371 11.0918 47.3203 9.62109 48.9727 8.60156C50.6367 7.57031 52.5352 7.05469 54.668 7.05469C56.8008 7.05469 58.6934 7.57031 60.3457 8.60156C62.0098 9.62109 63.293 11.0918 64.1953 13.0137C65.1094 14.9238 65.5664 17.1328 65.5664 19.6406V20.7832ZM60.2227 19.623C60.2227 16.9395 59.7422 14.9004 58.7812 13.5059C57.8203 12.1113 56.4492 11.4141 54.668 11.4141C52.8984 11.4141 51.5332 12.1055 50.5723 13.4883C49.6113 14.8594 49.125 16.875 49.1133 19.5352V20.7832C49.1133 23.3965 49.5938 25.4238 50.5547 26.8652C51.5156 28.3066 52.8984 29.0273 54.7031 29.0273C56.4727 29.0273 57.832 28.3359 58.7812 26.9531C59.7305 25.5586 60.2109 23.5312 60.2227 20.8711V19.623ZM90.2109 33H84.9375L74.6719 16.1602V33H69.3984V7.40625H74.6719L84.9551 24.2812V7.40625H90.2109V33Z" fill="#19253F"/>
<path d="M153.557 26.2852C153.557 25.2891 153.205 24.5273 152.502 24C151.799 23.4609 150.533 22.8984 148.705 22.3125C146.877 21.7148 145.43 21.1289 144.363 20.5547C141.457 18.9844 140.004 16.8691 140.004 14.209C140.004 12.8262 140.391 11.5957 141.164 10.5176C141.949 9.42773 143.068 8.57813 144.521 7.96875C145.986 7.35937 147.627 7.05469 149.443 7.05469C151.271 7.05469 152.9 7.38867 154.33 8.05664C155.76 8.71289 156.867 9.64453 157.652 10.8516C158.449 12.0586 158.848 13.4297 158.848 14.9648H153.574C153.574 13.793 153.205 12.8848 152.467 12.2402C151.729 11.584 150.691 11.2559 149.355 11.2559C148.066 11.2559 147.064 11.5313 146.35 12.082C145.635 12.6211 145.277 13.3359 145.277 14.2266C145.277 15.0586 145.693 15.7559 146.525 16.3184C147.369 16.8809 148.605 17.4082 150.234 17.9004C153.234 18.8027 155.42 19.9219 156.791 21.2578C158.162 22.5938 158.848 24.2578 158.848 26.25C158.848 28.4648 158.01 30.2051 156.334 31.4707C154.658 32.7246 152.402 33.3516 149.566 33.3516C147.598 33.3516 145.805 32.9941 144.188 32.2793C142.57 31.5527 141.334 30.5625 140.479 29.3086C139.635 28.0547 139.213 26.6016 139.213 24.9492H144.504C144.504 27.7734 146.191 29.1855 149.566 29.1855C150.82 29.1855 151.799 28.9336 152.502 28.4297C153.205 27.9141 153.557 27.1992 153.557 26.2852ZM162.434 33V7.40625H170.309C172.559 7.40625 174.568 7.91602 176.338 8.93555C178.119 9.94336 179.508 11.3848 180.504 13.2598C181.5 15.123 181.998 17.2441 181.998 19.623V20.8008C181.998 23.1797 181.506 25.2949 180.521 27.1465C179.549 28.998 178.172 30.4336 176.391 31.4531C174.609 32.4727 172.6 32.9883 170.361 33H162.434ZM167.707 11.6777V28.7637H170.256C172.318 28.7637 173.895 28.0898 174.984 26.7422C176.074 25.3945 176.631 23.4668 176.654 20.959V19.6055C176.654 17.0039 176.115 15.0352 175.037 13.6992C173.959 12.3516 172.383 11.6777 170.309 11.6777H167.707ZM191.121 28.7637H202.318V33H185.848V7.40625H191.121V28.7637Z" fill="#19253F"/>
<path d="M207.504 29.75C208.079 29.75 208.524 29.915 208.837 30.2451C209.15 30.5667 209.307 30.973 209.307 31.4639C209.307 31.9463 209.15 32.3483 208.837 32.6699C208.524 32.9831 208.079 33.1396 207.504 33.1396C206.954 33.1396 206.518 32.9831 206.196 32.6699C205.875 32.3568 205.714 31.9548 205.714 31.4639C205.714 30.973 205.87 30.5667 206.184 30.2451C206.497 29.915 206.937 29.75 207.504 29.75ZM218.485 30.791C219.256 30.791 219.895 30.5667 220.402 30.1182C220.91 29.6696 221.181 29.1152 221.215 28.4551H224.122C224.088 29.3099 223.822 30.1097 223.322 30.8545C222.823 31.5908 222.146 32.1748 221.291 32.6064C220.436 33.0381 219.514 33.2539 218.523 33.2539C216.602 33.2539 215.079 32.6318 213.953 31.3877C212.827 30.1436 212.265 28.4255 212.265 26.2334V25.916C212.265 23.8255 212.823 22.154 213.94 20.9014C215.058 19.6403 216.581 19.0098 218.511 19.0098C220.144 19.0098 221.473 19.488 222.497 20.4443C223.53 21.3923 224.071 22.6406 224.122 24.1895H221.215C221.181 23.4023 220.91 22.7549 220.402 22.2471C219.903 21.7393 219.264 21.4854 218.485 21.4854C217.487 21.4854 216.716 21.8493 216.175 22.5771C215.633 23.2965 215.358 24.3926 215.35 25.8652V26.3604C215.35 27.8499 215.616 28.9629 216.149 29.6992C216.691 30.4271 217.47 30.791 218.485 30.791ZM225.874 26.0049C225.874 24.6592 226.141 23.4489 226.674 22.374C227.207 21.2907 227.956 20.4613 228.921 19.8857C229.886 19.3018 230.994 19.0098 232.247 19.0098C234.101 19.0098 235.603 19.6064 236.754 20.7998C237.913 21.9932 238.54 23.5758 238.633 25.5479L238.646 26.2715C238.646 27.6257 238.383 28.8359 237.858 29.9023C237.342 30.9688 236.597 31.7939 235.624 32.3779C234.659 32.9619 233.542 33.2539 232.272 33.2539C230.334 33.2539 228.781 32.6107 227.613 31.3242C226.454 30.0293 225.874 28.307 225.874 26.1572V26.0049ZM228.959 26.2715C228.959 27.6849 229.251 28.7936 229.835 29.5977C230.419 30.3932 231.231 30.791 232.272 30.791C233.313 30.791 234.122 30.3848 234.697 29.5723C235.281 28.7598 235.573 27.5706 235.573 26.0049C235.573 24.6169 235.273 23.5166 234.672 22.7041C234.079 21.8916 233.271 21.4854 232.247 21.4854C231.24 21.4854 230.44 21.8874 229.848 22.6914C229.255 23.487 228.959 24.6803 228.959 26.2715ZM244.155 19.2637L244.244 20.6982C245.209 19.5726 246.529 19.0098 248.205 19.0098C250.042 19.0098 251.299 19.7122 251.976 21.1172C252.974 19.7122 254.379 19.0098 256.19 19.0098C257.705 19.0098 258.831 19.4287 259.567 20.2666C260.312 21.1045 260.693 22.3402 260.71 23.9736V33H257.625V24.0625C257.625 23.1908 257.435 22.5518 257.054 22.1455C256.673 21.7393 256.042 21.5361 255.162 21.5361C254.46 21.5361 253.884 21.7266 253.436 22.1074C252.995 22.4798 252.687 22.9707 252.509 23.5801L252.521 33H249.437V23.9609C249.394 22.3444 248.569 21.5361 246.961 21.5361C245.725 21.5361 244.849 22.0397 244.333 23.0469V33H241.248V19.2637H244.155Z" fill="#19253F"/>
<path d="M105.852 33.9219L106.316 31.7617C105.861 31.7799 105.487 31.6615 105.195 31.4062C104.913 31.1602 104.689 30.832 104.525 30.4219C104.361 30.0117 104.247 29.5514 104.184 29.041C104.129 28.5397 104.102 28.043 104.102 27.5508V25.3223C104.102 24.2376 103.837 23.2806 103.309 22.4512C102.78 21.6217 101.951 20.9883 100.82 20.5508C101.941 20.1133 102.766 19.4753 103.295 18.6367C103.833 17.7982 104.102 16.8366 104.102 15.752V13.5234C104.102 13.0312 104.111 12.5345 104.129 12.0332C104.156 11.5228 104.238 11.0625 104.375 10.6523C104.512 10.2422 104.73 9.91406 105.031 9.66797C105.332 9.41276 105.76 9.29427 106.316 9.3125L105.852 7.16602C104.967 7.16602 104.206 7.33464 103.568 7.67188C102.93 8.00911 102.415 8.44206 102.023 8.9707C101.549 9.58138 101.203 10.3014 100.984 11.1309C100.766 11.9512 100.656 12.7487 100.656 13.5234V15.752C100.656 16.9824 100.374 17.862 99.8086 18.3906C99.2435 18.9193 98.3822 19.1836 97.2246 19.1836V21.918C98.3822 21.918 99.2435 22.1823 99.8086 22.7109C100.374 23.2396 100.656 24.11 100.656 25.3223V27.5508C100.656 28.2708 100.752 29.0046 100.943 29.752C101.144 30.5085 101.463 31.2012 101.9 31.8301C102.311 32.4316 102.844 32.9284 103.5 33.3203C104.165 33.7214 104.949 33.9219 105.852 33.9219ZM125.012 31.7617L125.477 33.9219C126.379 33.9219 127.158 33.7259 127.815 33.334C128.48 32.9512 129.018 32.4453 129.428 31.8164C129.838 31.2148 130.148 30.5312 130.358 29.7656C130.567 29 130.672 28.2617 130.672 27.5508V25.3223C130.672 24.8939 130.704 24.5111 130.768 24.1738C130.841 23.8275 130.945 23.5267 131.082 23.2715C131.337 22.7975 131.716 22.4557 132.217 22.2461C132.718 22.0273 133.347 21.918 134.104 21.918V19.1836C133.429 19.1836 132.85 19.097 132.367 18.9238C131.893 18.7507 131.524 18.4772 131.26 18.1035C131.059 17.8301 130.909 17.4974 130.809 17.1055C130.718 16.7135 130.672 16.2624 130.672 15.752V13.5234C130.672 12.8307 130.585 12.1152 130.412 11.377C130.248 10.6296 129.966 9.95508 129.565 9.35352C129.145 8.68815 128.603 8.15951 127.938 7.76758C127.272 7.36654 126.452 7.16602 125.477 7.16602L125.012 9.3125C125.568 9.29427 125.996 9.41276 126.297 9.66797C126.598 9.91406 126.817 10.2422 126.953 10.6523C127.09 11.0625 127.167 11.5228 127.186 12.0332C127.213 12.5345 127.227 13.0312 127.227 13.5234V15.752C127.227 16.3809 127.313 16.9779 127.486 17.543C127.66 18.099 127.929 18.6048 128.293 19.0605C128.539 19.3704 128.831 19.653 129.168 19.9082C129.505 20.1634 129.893 20.3822 130.33 20.5645C129.792 20.7923 129.328 21.0703 128.936 21.3984C128.553 21.7174 128.234 22.082 127.979 22.4922C127.723 22.9023 127.532 23.3444 127.404 23.8184C127.286 24.2923 127.227 24.7936 127.227 25.3223V27.5508C127.227 28.043 127.195 28.5397 127.131 29.041C127.067 29.5514 126.953 30.0117 126.789 30.4219C126.625 30.832 126.397 31.1602 126.106 31.4062C125.823 31.6615 125.458 31.7799 125.012 31.7617Z" fill="#2163EF"/>
<path d="M121.809 29V26.3867H114.32L117.531 22.9883C118.086 22.418 118.59 21.875 119.043 21.3594C119.496 20.8359 119.887 20.3242 120.215 19.8242C120.535 19.3242 120.781 18.8203 120.953 18.3125C121.133 17.7969 121.223 17.2578 121.223 16.6953C121.223 15.9531 121.105 15.2773 120.871 14.668C120.637 14.0508 120.297 13.5234 119.852 13.0859C119.398 12.6484 118.836 12.3086 118.164 12.0664C117.5 11.8242 116.734 11.7031 115.867 11.7031C114.961 11.7031 114.133 11.8516 113.383 12.1484C112.641 12.4375 112.008 12.8359 111.484 13.3438C110.953 13.8516 110.543 14.4453 110.254 15.125C109.965 15.7969 109.82 16.5117 109.82 17.2695H113.09C113.09 16.8086 113.148 16.3984 113.266 16.0391C113.383 15.6797 113.555 15.3789 113.781 15.1367C114 14.9023 114.273 14.7266 114.602 14.6094C114.938 14.4844 115.324 14.4219 115.762 14.4219C116.098 14.4219 116.402 14.4766 116.676 14.5859C116.957 14.6953 117.199 14.8516 117.402 15.0547C117.598 15.2656 117.75 15.5195 117.859 15.8164C117.969 16.1133 118.023 16.4531 118.023 16.8359C118.023 17.0938 117.98 17.3594 117.895 17.6328C117.816 17.9062 117.688 18.1992 117.508 18.5117C117.32 18.832 117.078 19.1836 116.781 19.5664C116.484 19.9492 116.121 20.375 115.691 20.8438L110.172 26.7734V29H121.809Z" fill="#2163EF"/>
</svg>
